<?xml version="1.0" encoding="utf-8"?>
<svg xmlns="http://www.w3.org/2000/svg" xmlns:xlink="http://www.w3.org/1999/xlink" version= "1.1" width="1080px" height="2275px" viewBox="0 0 1080 2275">
<g id="layer1">
<g style="fill:rgb(0,0,0); fill-opacity:1.0; stroke-linejoin: miter">
<path d="M112.92569,1560.5673C112.11436,1563.2698,114.588455,1576.8966,123.25388,1603.15C131.91931,1629.4034,147.52019,1667.9396,170.11954,1718.6953C192.71889,1769.4512,222.42532,1832.3617,243.05922,1874.8489C263.6931,1917.3362,271.0247,1931.1333,278.75574,1944.1853C286.48682,1957.2372,294.61734,1969.5487,303.22076,1981.0648C311.82422,1992.5809,320.87106,2003.3167,342.55054,2011.8213C364.23004,2020.3258,381.10034,2001.9972,383.60144,1990.0876C386.10257,1978.1781,387.3686,1963.529,388.1562,1944.1208C388.94376,1924.7125,389.23334,1900.2231,388.3952,1870.7009C387.55704,1841.1787,386.25067,1803.7692,385.14246,1755.3716C384.03424,1706.9739,383.1282,1647.6448,382.4259,1577.4152C381.7236,1507.1855,381.2256,1426.0679,380.88422,1373.6516C380.54288,1321.2354,379.97052,1305.6761,379.0122,1291.0669C378.05386,1276.4575,376.701,1262.7828,374.93768,1250.0193C373.17438,1237.2557,370.98166,1225.38,371.44733,1262.5134C371.91302,1299.647,428.80838,1356.0762,488.02167,1410.884C547.235,1465.692,608.76404,1518.8779,672.6063,1570.4417C736.44867,1622.0052,802.60223,1671.9464,860.58417,1679.8306C918.5661,1687.7148,918.37933,1678.0082,917.6957,1667.6399C917.01196,1657.2715,915.84753,1646.2056,914.214,1634.4084C912.5805,1622.6115,910.48315,1610.0629,865.06915,1395.0155C819.65515,1179.9681,723.8329,765.01,709.08673,715.735C694.3406,666.45996,680.6721,624.43024,667.8879,589.38464C655.10364,554.3391,643.2491,526.2962,632.2798,505.37567C621.31055,484.45517,611.7254,470.7172,611.4456,469.57474C611.16583,468.43228,611.2965,467.6522,611.9132,467.32767C612.52997,467.00314,613.5704,467.2136,614.5394,467.6239C615.5085,468.03418,615.5085,468.03418,614.8624,467.76065C614.8624,467.76065,613.5704,467.2136,612.6559,467.17148C611.74133,467.12936,611.1123,467.5322,610.78076,468.5454C610.4492,469.55862,610.4821,471.28378,615.4443,489.33392C620.40643,507.38403,626.3848,532.0506,633.5853,563.4769C640.7859,594.9032,649.2151,633.1441,658.867,678.2326C668.5189,723.3211,679.13477,774.6738,763.6825,1191.871C848.23016,1609.0681,850.35,1620.6349,852.1206,1631.8342C853.8913,1643.0337,855.2052,1653.2964,856.0703,1662.5947C856.9355,1671.893,857.3631,1680.1971,880.4832,1674.9417C903.60333,1669.6863,838.86224,1622.8243,774.53033,1573.1543C710.1984,1523.4844,648.17163,1472.2429,588.4474,1419.43C528.72314,1366.6172,471.2994,1312.2322,415.19806,1255.3253C359.09668,1198.4185,311.13657,1237.4769,312.86597,1247.773C314.59537,1258.0688,316.01984,1269.5336,317.1186,1282.14C318.21738,1294.7465,318.9793,1308.4769,319.3943,1323.2336C319.80927,1337.9902,320.1709,1426.3774,320.73816,1504.0171C321.30542,1581.6567,322.0781,1648.4575,323.05704,1704.4387C324.03598,1760.4199,325.22302,1805.6132,326.6101,1839.7559C327.9972,1873.8987,328.67297,1900.8679,328.9926,1922.693C329.3123,1944.5181,329.14532,1960.6929,328.51886,1970.5435C327.8924,1980.394,327.9322,1981.2611,348.6767,1976.8782C369.42117,1972.4951,362.27274,1965.3484,354.26538,1956.3967C346.258,1947.4451,338.4335,1937.6561,330.73553,1927.062C323.0376,1916.468,315.6265,1904.9634,308.26102,1892.4882C300.89554,1880.013,261.60477,1811.7125,229.14078,1755.7577C196.6768,1699.8029,170.98195,1656.1659,152.2541,1624.7283C133.52626,1593.2905,121.9229,1573.944,118.435486,1568.4249C115.07695,1560.6925,112.79682,1562.7806,112.92569,1560.5673 Z"/>
</g>
</g>
</svg>